<svg style="height: 512px; width: 512px;" xmlns="http://www.w3.org/2000/svg" viewBox="0 0 512 512"><polygon points="487.89,352.05,352.05,487.89,159.95,487.89,24.11,352.05,24.11,159.95,159.95,24.11,352.05,24.11,487.89,159.95" fill="#000" fill-opacity="1" stroke="#c491dd" stroke-opacity="1" stroke-width="5"></polygon><g class="" style="" transform="translate(0,0)"><path d="M151 22v32h18V22h-18zm48 0v32h18V22h-18zm48 0v32h18V22h-18zm48 0v32h18V22h-18zm48 0v32h18V22h-18zM131.7 73L73 131.7v248.6l58.7 58.7h248.6l58.7-58.7V131.7L380.3 73H131.7zm60.3 46h128v18H192v-18zM22 151v18h32v-18H22zm436 0v18h32v-18h-32zm-339 32h274v146H119V183zm-97 16v18h32v-18H22zm436 0v18h32v-18h-32zm-321 2v110h238V201H137zM22 247v18h32v-18H22zm436 0v18h32v-18h-32zM22 295v18h32v-18H22zm436 0v18h32v-18h-32zM22 343v18h32v-18H22zm436 0v18h32v-18h-32zm-266 32h128v18H192v-18zm-41 83v32h18v-32h-18zm48 0v32h18v-32h-18zm48 0v32h18v-32h-18zm48 0v32h18v-32h-18zm48 0v32h18v-32h-18z" fill="#c491dd" fill-opacity="1" transform="translate(51.2, 51.2) scale(0.8, 0.8) rotate(0, 256, 256) skewX(0) skewY(0)"></path></g></svg>